<svg xmlns="http://www.w3.org/2000/svg" width="1000" height="1000" id="empty" style=""><g id="horizontal" transform="matrix(1,0,0,1,0,0)"><g id="icon" transform="matrix(1.0179125195926504,0,0,1.0179125195926504,-0.23585837870859727,0.6465701825808594)"><path fill="#ff520d" d="M641.928818476625 971.4806513269607C644.128818476625 970.1806513269607 646.428818476625 969.0806513269607 648.828818476625 968.2806513269607C648.928818476625 968.2806513269607 648.928818476625 968.2806513269607 649.028818476625 968.2806513269607C649.628818476625 967.8806513269607 649.928818476625 967.5806513269607 649.928818476625 967.5806513269607C649.928818476625 967.5806513269607 649.7288184766251 967.7806513269607 649.528818476625 968.0806513269607C656.128818476625 965.9806513269607 663.528818476625 964.7806513269607 670.7288184766251 964.7806513269607C673.2288184766251 964.7806513269607 675.828818476625 964.8806513269607 678.328818476625 965.1806513269607C680.028818476625 963.7806513269607 681.428818476625 962.1806513269607 682.328818476625 960.4806513269607C684.428818476625 961.3806513269607 687.528818476625 962.8806513269607 690.828818476625 964.9806513269607C693.2288184766251 966.4806513269607 695.7288184766251 968.3806513269607 697.928818476625 970.4806513269607C710.328818476625 976.0806513269607 720.528818476625 985.9806513269607 724.428818476625 1000.4806513269607C726.428818476625 1001.9806513269607 728.628818476625 1003.1806513269607 730.928818476625 1004.2806513269607C731.628818476625 1004.5806513269607 732.328818476625 1004.9806513269607 733.128818476625 1005.3806513269607C738.628818476625 1008.3806513269607 743.628818476625 1012.5806513269607 746.628818476625 1018.4806513269607L746.128818476625 1019.2806513269607C739.828818476625 1015.7806513269607 733.028818476625 1013.2806513269607 726.028818476625 1011.7806513269607C726.2288184766251 1017.4806513269607 726.928818476625 1024.8806513269608 727.7288184766251 1031.9806513269607C729.328818476625 1047.3806513269608 729.7288184766251 1053.5806513269606 728.528818476625 1057.1806513269607C726.528818476625 1063.0806513269606 721.128818476625 1063.5806513269606 719.028818476625 1063.6806513269607C718.828818476625 1063.6806513269607 718.7288184766251 1063.6806513269607 718.528818476625 1063.6806513269607L718.2288184766251 1064.1806513269607L714.328818476625 1069.7806513269607L713.528818476625 1070.3806513269608C713.128818476625 1070.6806513269607 712.628818476625 1070.9806513269607 712.128818476625 1071.1806513269607C712.028818476625 1072.0806513269606 711.828818476625 1072.9806513269607 711.328818476625 1073.8806513269608C710.928818476625 1074.7806513269607 710.2288184766251 1076.1806513269607 709.128818476625 1077.1806513269607C706.7288184766251 1080.4806513269607 702.328818476625 1085.3806513269608 695.7288184766251 1085.3806513269608L695.428818476625 1085.3806513269608C692.528818476625 1085.2806513269607 689.928818476625 1084.2806513269607 687.928818476625 1083.3806513269608C687.328818476625 1083.1806513269607 686.628818476625 1082.7806513269607 686.028818476625 1082.5806513269606C684.628818476625 1084.3806513269608 684.028818476625 1086.5806513269606 684.128818476625 1089.2806513269607C684.328818476625 1094.8806513269608 687.828818476625 1101.4806513269607 692.7288184766251 1105.2806513269607C695.128818476625 1107.1806513269607 697.828818476625 1108.7806513269607 700.628818476625 1110.1806513269607C701.2288184766251 1100.9806513269607 701.028818476625 1093.2806513269607 699.2288184766251 1089.4806513269607C737.828818476625 1087.9806513269607 766.028818476625 1054.8806513269608 766.028818476625 1054.8806513269608C766.028818476625 1054.8806513269608 803.128818476625 1022.2806513269607 799.628818476625 1009.3806513269607C796.528818476625 997.7806513269607 780.928818476625 992.8806513269607 772.928818476625 985.3806513269607C768.7288184766251 981.4806513269607 765.528818476625 976.5806513269607 761.428818476625 972.6806513269607C755.7288184766251 967.3806513269607 748.7288184766251 964.5806513269607 741.828818476625 961.4806513269607C734.828818476625 958.3806513269607 728.2288184766251 954.2806513269607 721.628818476625 950.3806513269607C719.7288184766251 949.2806513269607 703.828818476625 938.9806513269607 696.7288184766251 936.6806513269607L696.828818476625 936.1806513269607C696.828818476625 936.1806513269607 690.928818476625 935.0806513269607 687.528818476625 934.4806513269607C687.128818476625 934.3806513269607 686.828818476625 934.3806513269607 686.528818476625 934.2806513269607C676.028818476625 931.6806513269607 656.928818476625 934.7806513269607 656.928818476625 934.7806513269607C656.928818476625 934.7806513269607 636.628818476625 935.4806513269607 636.628818476625 940.7806513269607C636.7288184766251 945.9806513269607 637.2288184766251 968.3806513269607 639.928818476625 970.7806513269607C640.328818476625 971.4806513269607 641.128818476625 971.5806513269607 641.928818476625 971.4806513269607Z " transform="matrix(0.4030384952483744,0,0,0.4030385128116926,7.8603047465150215,42.24171571253545)"></path><path fill="#ff520d" d="M624.628818476625 1086.2806513269607C629.528818476625 1082.3806513269608 632.928818476625 1078.1806513269607 634.828818476625 1073.5806513269606C636.628818476625 1069.1806513269607 636.7288184766251 1063.5806513269606 635.028818476625 1058.9806513269607C633.7288184766251 1067.5806513269606 631.128818476625 1078.0806513269606 624.628818476625 1086.2806513269607Z " transform="matrix(0.4030384952483744,0,0,0.4030385128116926,7.8603047465150215,42.24171571253545)"></path><path fill="#ff520d" d="M480.2288184766251 1170.8806513269606C488.32881847662514 1159.4806513269607 501.52881847662513 1153.9806513269607 513.1288184766252 1149.0806513269608L513.8288184766252 1148.7806513269607C527.6288184766252 1142.9806513269607 542.0288184766251 1136.3806513269606 554.3288184766252 1127.2806513269607C557.1288184766252 1125.1806513269607 559.8288184766252 1122.9806513269607 562.6288184766252 1120.6806513269607C567.5288184766251 1116.6806513269607 572.5288184766251 1112.5806513269606 578.2288184766251 1109.0806513269606C585.1288184766252 1104.8806513269608 592.5288184766251 1101.8806513269608 599.6288184766252 1099.0806513269606C597.7288184766251 1098.7806513269607 596.1288184766252 1097.6806513269607 595.1288184766252 1095.9806513269607C593.3288184766252 1092.7806513269607 595.0288184766251 1089.8806513269608 595.7288184766251 1088.5806513269606C596.9288184766251 1086.4806513269607 599.8288184766252 1081.7806513269607 599.3288184766252 1071.6806513269607C598.1288184766252 1066.3806513269608 597.2288184766251 1061.4806513269607 596.4288184766251 1056.9806513269607C586.9288184766251 1055.3806513269608 577.1288184766252 1053.1806513269607 573.0288184766251 1051.1806513269607C572.7288184766251 1050.9806513269607 572.4288184766251 1050.7806513269607 572.1288184766252 1050.4806513269607C570.4288184766251 1049.1806513269607 557.7288184766251 1039.6806513269607 558.4288184766251 1038.0806513269606C558.3288184766252 1038.2806513269607 558.2288184766251 1038.5806513269606 558.1288184766252 1038.8806513269608C548.9288184766251 1016.8806513269607 544.8288184766252 1006.0806513269607 541.6288184766252 998.7806513269607C538.4288184766251 991.3806513269607 534.9288184766251 984.3806513269607 529.5288184766251 978.2806513269607C524.3288184766252 972.5806513269607 518.3288184766252 967.5806513269607 511.42881847662517 963.9806513269607C505.42881847662517 960.8806513269607 498.92881847662517 958.7806513269607 492.32881847662514 957.2806513269607C478.92881847662517 954.0806513269607 465.12881847662516 953.3806513269607 452.52881847662513 959.6806513269607C441.32881847662514 965.2806513269607 432.7288184766252 974.9806513269607 426.42881847662517 985.5806513269607C422.2288184766252 992.2806513269607 416.12881847662516 1003.0806513269607 421.12881847662516 1010.9806513269607C424.02881847662513 1015.5806513269607 429.7288184766252 1017.3806513269607 434.82881847662514 1018.3806513269607C437.32881847662514 1018.8806513269607 440.32881847662514 1018.8806513269607 441.42881847662517 1021.6806513269607C442.62881847662516 1024.6806513269607 441.82881847662514 1028.4806513269607 441.92881847662517 1031.6806513269607C442.12881847662516 1035.6806513269607 442.62881847662516 1047.6806513269607 448.62881847662516 1047.2806513269607C450.62881847662516 1047.1806513269607 454.42881847662517 1046.9806513269607 454.2288184766252 1049.9806513269607C454.02881847662513 1052.7806513269607 452.7288184766252 1067.1806513269607 452.92881847662517 1071.0806513269606C453.12881847662516 1074.9806513269607 467.92881847662517 1074.5806513269606 467.92881847662517 1074.5806513269606C467.92881847662517 1074.5806513269606 470.12881847662516 1077.7806513269607 470.12881847662516 1079.8806513269608C471.92881847662517 1082.6806513269607 474.92881847662517 1077.9806513269607 475.82881847662514 1079.8806513269608C472.12881847662516 1081.9806513269607 474.52881847662513 1086.4806513269607 474.52881847662513 1086.4806513269607C474.52881847662513 1086.4806513269607 483.82881847662514 1085.9806513269607 485.12881847662516 1089.0806513269606C484.52881847662513 1091.9806513269607 484.7288184766251 1098.3806513269608 489.2288184766251 1097.7806513269607C491.92881847662517 1097.3806513269608 495.2288184766251 1095.1806513269607 497.7288184766251 1093.9806513269607C500.62881847662516 1092.5806513269606 503.52881847662513 1091.0806513269606 506.42881847662517 1089.5806513269606C507.42881847662517 1089.0806513269606 516.0288184766251 1083.6806513269607 516.8288184766252 1084.2806513269607C516.8288184766252 1084.2806513269607 518.3288184766252 1087.5806513269606 520.0288184766251 1090.8806513269608C520.0288184766251 1090.8806513269608 512.1288184766252 1107.9806513269607 496.82881847662514 1105.2806513269607C492.2288184766251 1104.4806513269607 487.52881847662513 1105.4806513269607 482.92881847662517 1106.2806513269607C478.42881847662517 1107.3806513269608 473.92881847662517 1108.7806513269607 469.82881847662514 1110.9806513269607C465.7288184766251 1113.1806513269607 461.82881847662514 1115.6806513269607 458.42881847662517 1118.8806513269606C456.62881847662516 1120.3806513269606 455.2288184766252 1122.1806513269607 453.62881847662516 1123.8806513269606C452.2288184766252 1125.7806513269607 450.7288184766252 1127.5806513269608 449.62881847662516 1129.5806513269608C444.62881847662516 1137.4806513269607 442.12881847662516 1146.7806513269607 441.82881847662514 1156.1806513269607L440.82881847662514 1156.1806513269607C438.62881847662516 1149.8806513269606 438.2288184766252 1142.7806513269607 439.52881847662513 1135.8806513269606C431.32881847662514 1136.3806513269606 423.2288184766252 1139.2806513269607 416.62881847662516 1144.2806513269607C415.82881847662514 1144.8806513269606 415.12881847662516 1145.4806513269607 414.32881847662514 1146.1806513269607C413.32881847662514 1147.4806513269607 412.42881847662517 1148.7806513269607 411.52881847662513 1150.0806513269608C407.62881847662516 1155.5806513269608 405.12881847662516 1161.8806513269606 403.32881847662514 1168.4806513269607L402.32881847662514 1168.2806513269607C401.02881847662513 1166.2806513269607 400.2288184766252 1164.2806513269607 399.7288184766252 1162.2806513269607C389.82881847662514 1144.4806513269607 374.32881847662514 1129.2806513269607 381.82881847662514 1095.3806513269608C382.02881847662513 1095.3806513269608 382.2288184766252 1095.4806513269607 382.32881847662514 1095.6806513269607C392.12881847662516 1097.4806513269607 407.02881847662513 1084.8806513269608 407.02881847662513 1084.8806513269608C407.02881847662513 1084.8806513269608 421.92881847662517 1081.3806513269608 421.92881847662517 1076.2806513269607C421.92881847662517 1071.2806513269607 407.02881847662513 1072.9806513269607 407.02881847662513 1072.9806513269607C407.02881847662513 1072.9806513269607 416.12881847662516 1069.9806513269607 415.62881847662516 1066.3806513269608C415.12881847662516 1062.8806513269608 397.02881847662513 1049.7806513269607 392.7288184766252 1046.6806513269607C388.42881847662517 1043.6806513269607 376.32881847662514 1060.0806513269606 376.32881847662514 1060.0806513269606C376.32881847662514 1060.0806513269606 362.92881847662517 1074.1806513269607 359.2288184766251 1084.2806513269607C357.92881847662517 1087.1806513269607 354.92881847662517 1093.8806513269608 354.92881847662517 1093.8806513269608L355.02881847662513 1093.8806513269608C352.82881847662514 1104.4806513269607 351.32881847662514 1115.2806513269607 349.7288184766251 1126.0806513269608C347.2288184766251 1142.9806513269607 346.32881847662514 1160.0806513269608 346.82881847662514 1177.1806513269607C347.12881847662516 1186.8806513269606 347.42881847662517 1196.6806513269607 347.82881847662514 1206.3806513269606C348.02881847662513 1212.2806513269607 346.82881847662514 1217.9806513269607 352.12881847662516 1221.8806513269606C364.92881847662517 1231.2806513269607 378.32881847662514 1227.8806513269606 392.52881847662513 1225.0806513269608C396.62881847662516 1224.2806513269607 400.7288184766252 1223.7806513269607 404.82881847662514 1223.2806513269607C429.12881847662516 1220.2806513269607 452.2288184766252 1209.7806513269607 472.62881847662516 1196.2806513269607C472.62881847662516 1186.6806513269607 475.2288184766251 1177.7806513269607 480.2288184766251 1170.8806513269606Z " transform="matrix(0.4030384952483744,0,0,0.4030385128116926,7.8603047465150215,42.24171571253545)"></path><path fill="#ff520d" d="M594.3288184766251 1288.2806513269607C595.7288184766251 1283.3806513269606 597.8288184766251 1278.6806513269607 599.8288184766251 1274.1806513269607C602.8288184766251 1267.3806513269606 605.628818476625 1260.9806513269607 606.028818476625 1254.3806513269606C606.7288184766251 1243.7806513269607 601.3288184766251 1233.7806513269607 595.7288184766251 1223.1806513269607C590.628818476625 1213.5806513269606 585.3288184766251 1203.6806513269607 583.9288184766251 1192.4806513269607C583.8288184766251 1191.5806513269606 583.7288184766251 1190.5806513269606 583.628818476625 1189.6806513269607C582.7288184766251 1181.1806513269607 581.7288184766251 1176.9806513269607 578.7288184766251 1176.5806513269606C578.528818476625 1176.5806513269606 578.3288184766251 1176.5806513269606 578.128818476625 1176.5806513269606C577.4288184766251 1176.5806513269606 576.628818476625 1176.6806513269607 575.8288184766251 1176.9806513269607L549.028818476625 1186.2806513269607C544.028818476625 1187.9806513269607 538.9288184766251 1189.7806513269607 535.2288184766251 1192.8806513269606C525.3288184766251 1201.2806513269607 526.8288184766251 1218.1806513269607 527.9288184766251 1225.0806513269606C528.2288184766251 1226.6806513269607 528.528818476625 1228.2806513269607 528.8288184766251 1229.8806513269606C543.2288184766251 1245.8806513269606 552.628818476625 1269.8806513269606 550.2288184766251 1291.4806513269607L593.528818476625 1291.4806513269607C593.7288184766251 1290.4806513269607 594.028818476625 1289.3806513269606 594.3288184766251 1288.2806513269607Z " transform="matrix(0.4030384952483744,0,0,0.4030385128116926,7.8603047465150215,42.24171571253545)"></path><path fill="#21203f" d="M709.028818476625 1237.3806513269606C707.4288184766251 1232.1806513269607 705.3288184766251 1226.8806513269606 706.3288184766251 1221.6806513269607C708.1288184766252 1212.4806513269607 718.528818476625 1207.1806513269607 721.4288184766251 1198.1806513269607C740.4288184766251 1215.1806513269607 761.528818476625 1229.6806513269607 784.2288184766251 1241.1806513269607C787.8288184766251 1242.9806513269607 791.8288184766251 1243.8806513269606 795.8288184766251 1243.5806513269608C809.3288184766251 1242.2806513269607 812.028818476625 1227.9806513269607 812.8288184766251 1216.3806513269606C814.1288184766252 1195.5806513269608 814.528818476625 1174.5806513269608 812.6288184766252 1153.8806513269606C817.2288184766251 1144.5806513269608 818.9288184766251 1127.5806513269608 818.9288184766251 1127.5806513269608C818.9288184766251 1127.5806513269608 823.2288184766251 1108.6806513269607 818.4288184766251 1107.4806513269607C813.6288184766252 1106.2806513269607 792.9288184766251 1101.2806513269607 790.028818476625 1103.1806513269607C787.1288184766252 1104.9806513269607 790.6288184766252 1113.3806513269608 790.6288184766252 1113.3806513269608C790.6288184766252 1113.3806513269608 782.7288184766251 1101.5806513269606 779.028818476625 1104.6806513269607C775.4288184766251 1107.7806513269607 782.028818476625 1120.6806513269607 782.028818476625 1120.6806513269607C782.028818476625 1120.6806513269607 782.2288184766251 1137.7806513269607 788.7288184766251 1144.3806513269606C788.6288184766252 1144.6806513269607 788.6288184766252 1145.0806513269608 788.6288184766252 1145.3806513269606C788.528818476625 1146.8806513269606 788.4288184766251 1148.3806513269606 788.4288184766251 1149.8806513269606C788.4288184766251 1150.6806513269607 788.4288184766251 1151.4806513269607 788.3288184766251 1152.2806513269607C787.6288184766252 1166.7806513269607 783.4288184766251 1181.0806513269608 776.2288184766251 1193.6806513269607C774.3288184766251 1184.5806513269608 768.8288184766251 1176.3806513269606 761.1288184766252 1171.1806513269607C756.8288184766251 1168.2806513269607 751.7288184766251 1166.1806513269607 748.7288184766251 1161.9806513269607C746.9288184766251 1159.4806513269607 746.028818476625 1156.4806513269607 744.8288184766251 1153.6806513269607C740.528818476625 1142.9806513269607 732.7288184766251 1133.6806513269607 722.9288184766251 1127.6806513269607C712.1288184766252 1120.9806513269607 699.028818476625 1118.1806513269607 689.028818476625 1110.2806513269607C679.028818476625 1102.3806513269608 673.528818476625 1085.8806513269608 682.9288184766251 1077.2806513269607C686.6288184766252 1074.6806513269607 691.2288184766251 1079.3806513269608 695.7288184766251 1079.4806513269607C699.9288184766251 1079.5806513269606 703.028818476625 1075.7806513269607 705.4288184766251 1072.2806513269607C705.6288184766252 1071.9806513269607 704.7288184766251 1074.0806513269606 705.9288184766251 1071.4806513269607C707.1288184766252 1068.9806513269607 702.528818476625 1063.7806513269607 702.528818476625 1063.7806513269607C702.528818476625 1063.7806513269607 706.9288184766251 1067.7806513269607 709.9288184766251 1065.5806513269606C711.028818476625 1063.9806513269607 712.1288184766252 1062.3806513269608 713.2288184766251 1060.7806513269607C715.7288184766251 1055.3806513269608 721.2288184766251 1059.6806513269607 722.8288184766251 1055.1806513269607C724.4288184766251 1050.6806513269607 720.528818476625 1026.4806513269607 720.028818476625 1011.9806513269607C718.8288184766251 976.5806513269607 679.7288184766251 964.4806513269607 650.9288184766251 974.0806513269607C639.4288184766251 977.8806513269607 631.1288184766252 988.9806513269607 630.1288184766252 1001.0806513269607C626.4288184766251 994.2806513269607 613.528818476625 997.4806513269607 613.528818476625 997.4806513269607C613.528818476625 997.4806513269607 590.3288184766251 1003.8806513269607 605.6288184766252 1070.8806513269608C606.6288184766252 1087.7806513269607 599.3288184766251 1093.0806513269606 600.8288184766251 1093.0806513269606C629.028818476625 1088.6806513269607 628.7288184766251 1058.0806513269606 630.528818476625 1045.4806513269607C641.3288184766251 1050.0806513269606 645.028818476625 1064.9806513269607 640.4288184766251 1075.8806513269608C635.8288184766251 1086.9806513269607 625.2288184766251 1094.3806513269608 614.3288184766251 1099.4806513269607C603.4288184766251 1104.5806513269606 591.7288184766251 1107.9806513269607 581.528818476625 1114.1806513269607C573.128818476625 1119.2806513269607 565.9288184766251 1126.1806513269607 558.028818476625 1132.0806513269608C545.3288184766251 1141.4806513269607 530.8288184766251 1148.1806513269607 516.2288184766251 1154.3806513269606C504.72881847662507 1159.1806513269607 492.4288184766251 1164.1806513269607 485.12881847662504 1174.3806513269606C478.22881847662507 1184.0806513269608 477.22881847662507 1196.8806513269606 479.72881847662507 1208.4806513269607C482.22881847662507 1220.0806513269608 487.8288184766251 1230.6806513269607 493.4288184766251 1241.1806513269607C494.72881847662507 1243.5806513269608 495.9288184766251 1245.9806513269607 497.22881847662507 1248.2806513269607C496.22881847662507 1258.3806513269606 498.4288184766251 1271.8806513269606 498.4288184766251 1271.8806513269606C498.4288184766251 1271.8806513269606 499.12881847662504 1291.1806513269607 504.12881847662504 1291.1806513269607C509.12881847662504 1291.0806513269608 530.3288184766251 1290.5806513269608 532.628818476625 1288.0806513269608C534.9288184766251 1285.5806513269608 529.4288184766251 1278.3806513269606 529.4288184766251 1278.3806513269606C529.4288184766251 1278.3806513269606 540.128818476625 1287.7806513269607 542.8288184766251 1283.7806513269607C545.528818476625 1279.7806513269607 535.7288184766251 1269.0806513269608 535.7288184766251 1269.0806513269608C535.7288184766251 1269.0806513269608 531.7288184766251 1254.5806513269608 524.628818476625 1248.8806513269606C524.7288184766251 1247.0806513269608 524.7288184766251 1245.2806513269607 524.628818476625 1243.4806513269607C524.528818476625 1242.2806513269607 524.4288184766251 1241.0806513269608 524.2288184766251 1239.7806513269607C523.628818476625 1235.1806513269607 522.628818476625 1230.5806513269608 521.8288184766251 1225.9806513269607C519.628818476625 1212.5806513269608 520.8288184766251 1196.8806513269606 531.2288184766251 1188.1806513269607C535.7288184766251 1184.3806513269606 541.4288184766251 1182.3806513269606 546.9288184766251 1180.4806513269607C555.8288184766251 1177.3806513269606 564.8288184766251 1174.2806513269607 573.7288184766251 1171.1806513269607C575.528818476625 1170.5806513269608 577.528818476625 1170.2806513269607 579.4288184766251 1170.4806513269607C588.528818476625 1171.6806513269607 588.8288184766251 1183.1806513269607 589.8288184766251 1191.6806513269607C592.6288184766252 1214.0806513269608 613.4288184766251 1232.2806513269607 611.9288184766251 1254.7806513269607C611.1288184766252 1267.1806513269607 603.528818476625 1278.0806513269608 600.028818476625 1289.9806513269607C599.9288184766251 1290.4806513269607 599.7288184766251 1290.9806513269607 599.6288184766252 1291.4806513269607L704.7288184766251 1291.4806513269607C712.8288184766251 1274.7806513269607 714.3288184766251 1255.0806513269608 709.028818476625 1237.3806513269606Z " transform="matrix(0.4030384952483744,0,0,0.4030385128116926,7.8603047465150215,42.24171571253545)"></path><g transform="matrix(0.8060769904967487,0,0,0.8060770256233852,7.8603047465150215,42.24171571253545)"></g></g><g id="logo" transform="matrix(1.0179125195926504,0,0,1.0179125195926504,240.204348313768,0.6465701825808594)"><g id="brand" fill="#21203f" transform="matrix(1,0,0,1,0,0)"><g transform="matrix(1,0,0,1,0,0)"><path id="text" transform="matrix(1 0 0 1 -1.44 71.232)" d="M155.83290543707147 397.4461196622369L135.86490543707146 397.4461196622369L135.86490543707146 387.27011966223694L189.62490543707145 387.27011966223694L189.62490543707145 397.4461196622369L169.65690543707146 397.4461196622369L169.65690543707146 454.4701196622369L155.83290543707147 454.4701196622369L155.83290543707147 397.4461196622369ZM194.23290543707145 453.46211966223694C191.73690543707147 452.15011966223693 189.78490543707147 450.3261196622369 188.37690543707146 447.9901196622369C186.96890543707144 445.65411966223695 186.26490543707146 443.04611966223695 186.26490543707146 440.16611966223695C186.26490543707146 435.23811966223695 188.21690543707146 431.46211966223694 192.12090543707146 428.8381196622369C196.02490543707145 426.21411966223695 201.59290543707147 424.90211966223694 208.82490543707146 424.90211966223694L216.31290543707146 424.90211966223694L216.31290543707146 422.8861196622369C216.31290543707146 420.3261196622369 215.56090543707145 418.3581196622369 214.05690543707146 416.9821196622369C212.55290543707144 415.60611966223695 210.42490543707146 414.9181196622369 207.67290543707145 414.9181196622369C204.79290543707145 414.9181196622369 202.04090543707144 415.4301196622369 199.41690543707148 416.4541196622369C196.79290543707145 417.4781196622369 194.64890543707145 418.8861196622369 192.98490543707146 420.6781196622369L187.60890543707146 413.5741196622369C190.23290543707145 411.07811966223693 193.33690543707147 409.1101196622369 196.92090543707147 407.6701196622369C200.50490543707144 406.2301196622369 204.21690543707146 405.51011966223695 208.05690543707146 405.51011966223695C214.45690543707144 405.51011966223695 219.48090543707144 407.0141196622369 223.12890543707147 410.02211966223695C226.77690543707146 413.0301196622369 228.60090543707145 417.19011966223695 228.60090543707145 422.5021196622369L228.60090543707145 444.39011966223694C228.60090543707145 445.8621196622369 228.71290543707147 447.59011966223693 228.93690543707146 449.5741196622369C229.16090543707145 451.55811966223695 229.43290543707144 453.19011966223695 229.75290543707146 454.4701196622369L218.90490543707148 454.4701196622369C218.52090543707146 453.63811966223693 218.23290543707145 452.8221196622369 218.04090543707144 452.02211966223695C217.84890543707147 451.22211966223693 217.68890543707147 450.11811966223695 217.56090543707145 448.71011966223693L217.36890543707148 448.71011966223693C213.72090543707145 453.19011966223695 208.82490543707146 455.4301196622369 202.68090543707146 455.4301196622369C199.54490543707146 455.4301196622369 196.72890543707146 454.7741196622369 194.23290543707145 453.46211966223694ZM213.28890543707146 443.8621196622369C215.30490543707145 442.29411966223694 216.31290543707146 440.29411966223694 216.31290543707146 437.8621196622369L216.31290543707146 433.0621196622369L208.44090543707148 433.0621196622369C205.17690543707147 433.0621196622369 202.66490543707147 433.6701196622369 200.90490543707148 434.8861196622369C199.14490543707146 436.10211966223693 198.26490543707146 437.8621196622369 198.26490543707146 440.16611966223695C198.26490543707146 442.0861196622369 198.92090543707144 443.5741196622369 200.23290543707145 444.63011966223695C201.54490543707146 445.68611966223693 203.35290543707146 446.21411966223695 205.65690543707146 446.21411966223695C208.72890543707146 446.21411966223695 211.27290543707147 445.4301196622369 213.28890543707146 443.8621196622369ZM242.85690543707148 452.11811966223695C240.71290543707147 449.9101196622369 239.64090543707147 446.7261196622369 239.64090543707147 442.56611966223693L239.64090543707147 383.23811966223695L251.83290543707147 383.23811966223695L251.83290543707147 442.75811966223694C251.83290543707147 444.16611966223695 252.20090543707147 445.2061196622369 252.93690543707146 445.87811966223694C253.67290543707145 446.5501196622369 254.77690543707146 446.8861196622369 256.24890543707147 446.8861196622369C257.72090543707145 446.8861196622369 259.54490543707146 446.4701196622369 261.72090543707145 445.63811966223693L263.54490543707146 452.16611966223695C260.66490543707147 454.34211966223694 256.88890543707146 455.4301196622369 252.21690543707146 455.4301196622369C248.12090543707146 455.4301196622369 245.00090543707145 454.3261196622369 242.85690543707148 452.11811966223695ZM309.24090543707143 434.9821196622369L275.8329054370714 434.9821196622369C276.8569054370714 441.7661196622369 280.79290543707145 445.1581196622369 287.64090543707147 445.1581196622369C290.45690543707144 445.1581196622369 292.9049054370714 444.67811966223695 294.98490543707146 443.7181196622369C297.06490543707145 442.75811966223694 299.0969054370714 441.1581196622369 301.08090543707146 438.9181196622369L307.7049054370715 445.2541196622369C305.8489054370715 448.3261196622369 303.0489054370714 450.7901196622369 299.30490543707145 452.6461196622369C295.5609054370715 454.5021196622369 291.44890543707146 455.4301196622369 286.9689054370715 455.4301196622369C279.48090543707144 455.4301196622369 273.6569054370715 453.2381196622369 269.49690543707146 448.85411966223694C265.33690543707144 444.4701196622369 263.25690543707145 438.4061196622369 263.25690543707145 430.66211966223693C263.25690543707145 422.85411966223694 265.35290543707146 416.71011966223693 269.54490543707146 412.2301196622369C273.73690543707147 407.7501196622369 279.5129054370715 405.51011966223695 286.8729054370715 405.51011966223695C293.91290543707146 405.51011966223695 299.40090543707146 407.7181196622369 303.33690543707144 412.1341196622369C307.2729054370715 416.5501196622369 309.24090543707143 422.6941196622369 309.24090543707143 430.56611966223693L309.24090543707143 434.9821196622369ZM297.24090543707143 426.05411966223693C297.24090543707143 422.7901196622369 296.2969054370715 420.21411966223695 294.40890543707144 418.3261196622369C292.52090543707146 416.43811966223694 289.91290543707146 415.4941196622369 286.5849054370715 415.4941196622369C283.57690543707145 415.4941196622369 281.14490543707143 416.4701196622369 279.28890543707143 418.4221196622369C277.43290543707144 420.3741196622369 276.24890543707147 423.1101196622369 275.73690543707147 426.63011966223695L297.24090543707143 426.63011966223695L297.24090543707143 426.05411966223693ZM316.7289054370715 419.14211966223695C316.7289054370715 413.31811966223694 316.60090543707145 409.09411966223695 316.3449054370715 406.4701196622369L327.86490543707146 406.4701196622369C328.18490543707145 409.1581196622369 328.3449054370715 411.9421196622369 328.3449054370715 414.8221196622369L328.6329054370715 414.8221196622369C329.7849054370715 412.0061196622369 331.81690543707145 409.7501196622369 334.7289054370715 408.05411966223693C337.64090543707147 406.3581196622369 340.88890543707146 405.51011966223695 344.47290543707146 405.51011966223695C349.9769054370714 405.51011966223695 354.13690543707145 407.36611966223694 356.9529054370714 411.07811966223693C359.76890543707145 414.7901196622369 361.17690543707147 420.26211966223696 361.17690543707147 427.4941196622369L361.17690543707147 454.4701196622369L348.98490543707146 454.4701196622369L348.98490543707146 427.3981196622369C348.98490543707146 423.23811966223695 348.31290543707144 420.19811966223693 346.9689054370715 418.2781196622369C345.62490543707145 416.3581196622369 343.48090543707144 415.3981196622369 340.5369054370715 415.3981196622369C337.14490543707143 415.3981196622369 334.37690543707146 416.5981196622369 332.23290543707145 418.99811966223695C330.08890543707145 421.3981196622369 329.0169054370715 424.48611966223694 329.0169054370715 428.26211966223696L329.0169054370715 454.4701196622369L316.7289054370715 454.4701196622369L316.7289054370715 419.14211966223695ZM380.28090543707145 451.3981196622369C377.52890543707144 448.71011966223693 376.15290543707147 444.9341196622369 376.15290543707147 440.07011966223695L376.15290543707147 415.59011966223693L367.4169054370715 415.59011966223693L367.4169054370715 406.4701196622369L376.15290543707147 406.4701196622369L376.15290543707147 394.0861196622369L388.05690543707146 390.6301196622369L388.4409054370715 390.6301196622369L388.4409054370715 406.4701196622369L402.36090543707144 406.4701196622369L402.36090543707144 415.59011966223693L388.4409054370715 415.59011966223693L388.4409054370715 438.24611966223694C388.4409054370715 440.99811966223695 389.08090543707146 443.0141196622369 390.36090543707144 444.29411966223694C391.64090543707147 445.5741196622369 393.59290543707147 446.21411966223695 396.21690543707143 446.21411966223695C398.71290543707147 446.21411966223695 401.0489054370715 445.83011966223694 403.22490543707147 445.0621196622369L403.80090543707144 453.41411966223694C400.92090543707144 454.75811966223694 396.92090543707144 455.4301196622369 391.80090543707144 455.4301196622369C386.8729054370715 455.4301196622369 383.03290543707146 454.0861196622369 380.28090543707145 451.3981196622369ZM413.30490543707145 448.80611966223694C408.9529054370715 444.39011966223694 406.77690543707143 438.2781196622369 406.77690543707143 430.4701196622369C406.77690543707143 422.66211966223693 408.9529054370715 416.5501196622369 413.30490543707145 412.1341196622369C417.6569054370715 407.7181196622369 423.70490543707143 405.51011966223695 431.44890543707146 405.51011966223695C439.19290543707143 405.51011966223695 445.25690543707145 407.7181196622369 449.64090543707147 412.1341196622369C454.0249054370715 416.5501196622369 456.21690543707143 422.66211966223693 456.21690543707143 430.4701196622369C456.21690543707143 438.2781196622369 454.0249054370715 444.39011966223694 449.64090543707147 448.80611966223694C445.25690543707145 453.22211966223693 439.19290543707143 455.4301196622369 431.44890543707146 455.4301196622369C423.70490543707143 455.4301196622369 417.6569054370715 453.22211966223693 413.30490543707145 448.80611966223694ZM440.66490543707147 442.0861196622369C442.9049054370715 439.27011966223694 444.0249054370715 435.3981196622369 444.0249054370715 430.4701196622369C444.0249054370715 425.5421196622369 442.9049054370715 421.6701196622369 440.66490543707147 418.85411966223694C438.42490543707146 416.0381196622369 435.35290543707146 414.6301196622369 431.44890543707146 414.6301196622369C427.54490543707146 414.6301196622369 424.4889054370715 416.0381196622369 422.28090543707145 418.85411966223694C420.0729054370715 421.6701196622369 418.96890543707144 425.5421196622369 418.96890543707144 430.4701196622369C418.96890543707144 435.3981196622369 420.0729054370715 439.27011966223694 422.28090543707145 442.0861196622369C424.4889054370715 444.90211966223694 427.54490543707146 446.3101196622369 431.44890543707146 446.3101196622369C435.35290543707146 446.3101196622369 438.42490543707146 444.90211966223694 440.66490543707147 442.0861196622369ZM488.18490543707145 387.27011966223694L533.3049054370715 387.27011966223694L533.3049054370715 398.31011966223696L502.00890543707146 398.31011966223696L502.00890543707146 416.26211966223696L531.1929054370714 416.26211966223696L531.1929054370714 427.3021196622369L502.00890543707146 427.3021196622369L502.00890543707146 454.4701196622369L488.18490543707145 454.4701196622369L488.18490543707145 387.27011966223694ZM544.1529054370715 398.9341196622369C542.7449054370715 397.6221196622369 542.0409054370714 395.87811966223694 542.0409054370714 393.7021196622369C542.0409054370714 391.5261196622369 542.7449054370715 389.78211966223694 544.1529054370715 388.4701196622369C545.5609054370715 387.1581196622369 547.4489054370715 386.5021196622369 549.8169054370715 386.5021196622369C552.1849054370714 386.5021196622369 554.0889054370714 387.1581196622369 555.5289054370714 388.4701196622369C556.9689054370715 389.78211966223694 557.6889054370715 391.5261196622369 557.6889054370715 393.7021196622369C557.6889054370715 395.87811966223694 556.9849054370715 397.6221196622369 555.5769054370714 398.9341196622369C554.1689054370715 400.24611966223694 552.2489054370715 400.90211966223694 549.8169054370715 400.90211966223694C547.4489054370715 400.90211966223694 545.5609054370715 400.24611966223694 544.1529054370715 398.9341196622369ZM543.7689054370715 406.4701196622369L555.9609054370715 406.4701196622369L555.9609054370715 454.4701196622369L543.7689054370715 454.4701196622369L543.7689054370715 406.4701196622369ZM576.9849054370715 451.3981196622369C574.2329054370714 448.71011966223693 572.8569054370714 444.9341196622369 572.8569054370714 440.07011966223695L572.8569054370714 415.59011966223693L564.1209054370715 415.59011966223693L564.1209054370715 406.4701196622369L572.8569054370714 406.4701196622369L572.8569054370714 394.0861196622369L584.7609054370714 390.6301196622369L585.1449054370714 390.6301196622369L585.1449054370714 406.4701196622369L599.0649054370715 406.4701196622369L599.0649054370715 415.59011966223693L585.1449054370714 415.59011966223693L585.1449054370714 438.24611966223694C585.1449054370714 440.99811966223695 585.7849054370715 443.0141196622369 587.0649054370715 444.29411966223694C588.3449054370715 445.5741196622369 590.2969054370715 446.21411966223695 592.9209054370715 446.21411966223695C595.4169054370715 446.21411966223695 597.7529054370714 445.83011966223694 599.9289054370715 445.0621196622369L600.5049054370714 453.41411966223694C597.6249054370714 454.75811966223694 593.6249054370714 455.4301196622369 588.5049054370714 455.4301196622369C583.5769054370714 455.4301196622369 579.7369054370715 454.0861196622369 576.9849054370715 451.3981196622369Z "></path></g></g></g></g></svg>